<svg width="9" height="8" viewBox="0 0 9 8" fill="none" xmlns="http://www.w3.org/2000/svg">
<path d="M4.62108 0.219155L5.62754 2.26734C5.65489 2.32305 5.69595 2.37147 5.74715 2.40835C5.79834 2.44524 5.85812 2.46948 5.92125 2.47896L8.20046 2.81528C8.27172 2.82589 8.33856 2.85528 8.39361 2.9002C8.44867 2.94513 8.48981 3.00385 8.51248 3.06989C8.53516 3.13594 8.53851 3.20674 8.52215 3.2745C8.50579 3.34226 8.47036 3.40435 8.41976 3.45392L6.74756 5.10531C6.70422 5.14812 6.67203 5.20025 6.65364 5.2574C6.63526 5.31456 6.63121 5.37512 6.64182 5.43408L7.0491 7.55784C7.06207 7.62585 7.05544 7.69599 7.02995 7.76062C7.00445 7.82524 6.96107 7.88188 6.90453 7.92436C6.84798 7.96684 6.78044 7.99354 6.70926 8.00154C6.63808 8.00954 6.56599 7.99855 6.50084 7.96974L4.44485 7.06658C4.39383 7.04412 4.33841 7.0325 4.28233 7.0325C4.22625 7.0325 4.17083 7.04412 4.11981 7.06658L2.04816 7.96597C1.98334 7.99446 1.9117 8.00535 1.84095 7.99748C1.77019 7.9896 1.703 7.96326 1.64661 7.92128C1.59022 7.8793 1.54676 7.82328 1.5209 7.75924C1.49505 7.6952 1.48779 7.62557 1.49989 7.55784L1.89151 5.45675C1.90212 5.39779 1.89807 5.33724 1.87969 5.28008C1.86131 5.22292 1.82912 5.17079 1.78577 5.12799L0.11357 3.46904C0.0640756 3.41936 0.0296026 3.35756 0.0138803 3.29034C-0.00184199 3.22311 0.00178504 3.15302 0.024369 3.08764C0.0469529 3.02227 0.0876339 2.96409 0.14201 2.91942C0.196387 2.87474 0.262389 2.84526 0.332875 2.83418L2.61209 2.49785C2.67724 2.48652 2.73836 2.45943 2.78973 2.41912C2.84109 2.37881 2.88103 2.32658 2.9058 2.26734L3.91617 0.219155C3.94824 0.155264 3.99831 0.101381 4.06064 0.0636796C4.12298 0.0259777 4.19506 0.00598145 4.26862 0.00598145C4.34219 0.00598145 4.41427 0.0259777 4.47661 0.0636796C4.53894 0.101381 4.58901 0.155264 4.62108 0.219155Z" fill="#38F156"/>
</svg>
