<svg width="13" height="12" viewBox="0 0 13 12" fill="none" xmlns="http://www.w3.org/2000/svg">
<path d="M5.30886 4.85962L4.61032 7.18909C4.55099 7.38721 4.60519 7.60217 4.75149 7.74829C4.85843 7.85522 5.00216 7.91308 5.1492 7.91308C5.20321 7.91308 5.25759 7.90539 5.31069 7.88928L7.64034 7.19092C7.72952 7.16418 7.81082 7.11584 7.87655 7.04992L12.1477 2.77881C12.2531 2.67334 12.3125 2.53015 12.3125 2.38111C12.3125 2.23206 12.2531 2.08887 12.1477 1.9834L10.5164 0.352296C10.2967 0.132568 9.9407 0.132568 9.72098 0.352296L5.45004 4.62341C5.38412 4.68933 5.33578 4.77026 5.30886 4.85962ZM6.34579 5.31848L10.1187 1.54541L10.9544 2.38111L7.18148 6.15418L5.988 6.51196L6.34579 5.31848Z" fill="#9B9DA6"/>
<path d="M11.75 5.4375C11.4393 5.4375 11.1875 5.68946 11.1875 6V9.75C11.1875 10.2671 10.7669 10.6875 10.25 10.6875H2.75C2.23309 10.6875 1.8125 10.2671 1.8125 9.75V2.25C1.8125 1.73291 2.23309 1.3125 2.75 1.3125H6.5C6.81073 1.3125 7.0625 1.06054 7.0625 0.75C7.0625 0.439455 6.81073 0.1875 6.5 0.1875H2.75C1.61273 0.1875 0.6875 1.11291 0.6875 2.25V9.75C0.6875 10.8871 1.61273 11.8125 2.75 11.8125H10.25C11.3873 11.8125 12.3125 10.8871 12.3125 9.75V6C12.3125 5.68946 12.0607 5.4375 11.75 5.4375Z" fill="#9B9DA6"/>
</svg>
