<svg width="18" height="19" viewBox="0 0 18 19" fill="none" xmlns="http://www.w3.org/2000/svg">
<path d="M1.92604 6.27801H8.46004C8.77774 7.36431 9.76504 8.14461 10.935 8.14461C12.105 8.14461 13.0923 7.36431 13.4055 6.29601L13.41 6.27801H16.074C16.3827 6.22491 16.614 5.95851 16.614 5.63901C16.614 5.31951 16.3818 5.05311 16.0776 5.00091L16.074 5.00001H13.428C13.1211 3.89661 12.1257 3.10101 10.944 3.10101C9.76234 3.10101 8.76694 3.89751 8.46454 4.98201L8.46004 5.00001H1.92604C1.61734 5.05311 1.38604 5.31951 1.38604 5.63901C1.38604 5.95851 1.61734 6.22491 1.92244 6.27711L1.92604 6.27801ZM10.944 4.35201C11.6424 4.36191 12.204 4.93071 12.204 5.63001C12.204 6.33561 11.6316 6.90801 10.926 6.90801C10.2267 6.90801 9.65794 6.34641 9.64804 5.64891V5.64801C9.64804 5.64261 9.64804 5.63631 9.64804 5.63001C9.64804 4.92441 10.2204 4.35201 10.926 4.35201C10.9323 4.35201 10.9386 4.35201 10.9449 4.35201H10.944ZM16.074 12.722H9.55804C9.26284 11.6015 8.25934 10.7888 7.06504 10.7888C5.87074 10.7888 4.86724 11.6015 4.57564 12.704L4.57204 12.722H1.92604C1.89364 12.7166 1.85674 12.713 1.81804 12.713C1.45984 12.713 1.17004 13.0028 1.17004 13.361C1.17004 13.7192 1.45984 14.009 1.81804 14.009C1.85584 14.009 1.89364 14.0054 1.92964 13.9991L1.92604 14H4.59004C4.90774 15.0863 5.89504 15.8666 7.06504 15.8666C8.23504 15.8666 9.22234 15.0863 9.53554 14.018L9.54004 14H16.074C16.3827 13.9469 16.614 13.6805 16.614 13.361C16.614 13.0415 16.3818 12.7751 16.0776 12.7229L16.074 12.722ZM7.05604 14.648C6.35764 14.6381 5.79604 14.0693 5.79604 13.37C5.79604 12.6644 6.36844 12.092 7.07404 12.092C7.77334 12.092 8.34214 12.6536 8.35204 13.3511C8.35204 13.3565 8.35204 13.3637 8.35204 13.37C8.35204 14.0756 7.77964 14.648 7.07404 14.648C7.06774 14.648 7.06234 14.648 7.05604 14.648Z" fill="white"/>
</svg>
