<svg width="13" height="14" viewBox="0 0 13 14" fill="none" xmlns="http://www.w3.org/2000/svg">
<path d="M0 2.6889H1.34444H12.1" stroke="white" stroke-width="1.34444" stroke-linecap="round" stroke-linejoin="round"/>
<path d="M10.7555 2.68889V12.1C10.7555 12.4566 10.6139 12.7985 10.3618 13.0507C10.1096 13.3028 9.76766 13.4444 9.41109 13.4444H2.68887C2.3323 13.4444 1.99033 13.3028 1.7382 13.0507C1.48607 12.7985 1.34442 12.4566 1.34442 12.1V2.68889M3.36109 2.68889V1.34444C3.36109 0.987876 3.50273 0.645911 3.75487 0.393779C4.007 0.141646 4.34896 0 4.70553 0H7.39442C7.75099 0 8.09295 0.141646 8.34509 0.393779C8.59722 0.645911 8.73887 0.987876 8.73887 1.34444V2.68889" stroke="white" stroke-width="1.34444" stroke-linecap="round" stroke-linejoin="round"/>
<path d="M4.70551 6.04999V10.0833" stroke="white" stroke-width="1.34444" stroke-linecap="round" stroke-linejoin="round"/>
<path d="M7.39441 6.04999V10.0833" stroke="white" stroke-width="1.34444" stroke-linecap="round" stroke-linejoin="round"/>
</svg>
