<svg width="19" height="20" viewBox="0 0 19 20" fill="none" xmlns="http://www.w3.org/2000/svg">
<path d="M9.5 12.375C10.8117 12.375 11.875 11.3117 11.875 10C11.875 8.68832 10.8117 7.625 9.5 7.625C8.18832 7.625 7.125 8.68832 7.125 10C7.125 11.3117 8.18832 12.375 9.5 12.375Z" stroke="white" stroke-width="1.5" stroke-miterlimit="10" stroke-linecap="round" stroke-linejoin="round"/>
<path d="M1.58331 10.6966V9.30326C1.58331 8.47993 2.25623 7.7991 3.08748 7.7991C4.5204 7.7991 5.10623 6.78576 4.38581 5.54285C3.97415 4.83035 4.21956 3.9041 4.93998 3.49243L6.30956 2.70868C6.93498 2.3366 7.74248 2.55826 8.11456 3.18368L8.20165 3.3341C8.91415 4.57701 10.0858 4.57701 10.8062 3.3341L10.8933 3.18368C11.2654 2.55826 12.0729 2.3366 12.6983 2.70868L14.0679 3.49243C14.7883 3.9041 15.0337 4.83035 14.6221 5.54285C13.9016 6.78576 14.4875 7.7991 15.9204 7.7991C16.7437 7.7991 17.4246 8.47201 17.4246 9.30326V10.6966C17.4246 11.5199 16.7516 12.2008 15.9204 12.2008C14.4875 12.2008 13.9016 13.2141 14.6221 14.457C15.0337 15.1774 14.7883 16.0958 14.0679 16.5074L12.6983 17.2912C12.0729 17.6633 11.2654 17.4416 10.8933 16.8162L10.8062 16.6658C10.0937 15.4228 8.92206 15.4228 8.20165 16.6658L8.11456 16.8162C7.74248 17.4416 6.93498 17.6633 6.30956 17.2912L4.93998 16.5074C4.21956 16.0958 3.97415 15.1695 4.38581 14.457C5.10623 13.2141 4.5204 12.2008 3.08748 12.2008C2.25623 12.2008 1.58331 11.5199 1.58331 10.6966Z" stroke="white" stroke-width="1.5" stroke-miterlimit="10" stroke-linecap="round" stroke-linejoin="round"/>
</svg>
